<?xml version="1.0" encoding="UTF-8"?>
<!--Generator: Apple Native CoreSVG 175.5-->
<!DOCTYPE svg
PUBLIC "-//W3C//DTD SVG 1.1//EN"
       "http://www.w3.org/Graphics/SVG/1.1/DTD/svg11.dtd">
<svg version="1.1" xmlns="http://www.w3.org/2000/svg" xmlns:xlink="http://www.w3.org/1999/xlink" width="10.5498" height="11.7822">
 <g>
  <rect height="11.7822" opacity="0" width="10.5498" x="0" y="0"/>
  <path d="M5.27408 11.7822C6.70475 11.7822 7.63248 9.45312 7.63248 5.88867C7.63248 2.33887 6.70475 0.00976562 5.27408 0.00976562C3.84342 0.00976562 2.91569 2.33887 2.91569 5.88867C2.91569 9.45312 3.84342 11.7822 5.27408 11.7822ZM5.27408 11.0645C4.32194 11.0645 3.69205 9.02344 3.69205 5.88867C3.69205 2.75879 4.32194 0.727539 5.27408 0.727539C6.23111 0.727539 6.861 2.75879 6.861 5.88867C6.861 9.02344 6.23111 11.0645 5.27408 11.0645ZM0.171545 8.88672C0.889318 10.1221 3.3649 9.76562 6.45572 7.9834C9.54166 6.20605 11.0944 4.24316 10.3766 3.00293C9.65885 1.76758 7.18326 2.12402 4.10221 3.90137C1.01139 5.69824-0.53158 7.65137 0.171545 8.88672ZM0.801427 8.52539C0.322912 7.70508 1.76822 6.14746 4.49283 4.5752C7.19303 3.0127 9.27311 2.53906 9.74674 3.36914C10.2301 4.18457 8.77994 5.74707 6.07486 7.30469C3.35514 8.87695 1.27994 9.35059 0.801427 8.52539ZM10.3766 8.88672C11.0846 7.65137 9.53678 5.69824 6.44596 3.90137C3.3649 2.12402 0.894201 1.76758 0.171545 3.00293C-0.541346 4.24316 1.00651 6.20605 4.09244 7.9834C7.18815 9.76562 9.66373 10.1221 10.3766 8.88672ZM9.74674 8.52539C9.27311 9.35059 7.19791 8.87695 4.47819 7.30469C1.76822 5.74707 0.318029 4.18457 0.801427 3.36914C1.27506 2.53906 3.36002 3.0127 6.06022 4.5752C8.77994 6.14746 10.2253 7.70508 9.74674 8.52539ZM5.27897 6.93359C5.85026 6.93359 6.31412 6.46973 6.31412 5.89355C6.31412 5.32227 5.85026 4.8584 5.27897 4.8584C4.70279 4.8584 4.23893 5.32227 4.23893 5.89355C4.23893 6.46973 4.70279 6.93359 5.27897 6.93359Z" fill="#ffffff" fill-opacity="1"/>
 </g>
</svg>
