<svg width="31" height="25" viewBox="0 0 31 25" fill="none" xmlns="http://www.w3.org/2000/svg">
<path d="M26.2917 0.166626H4.70833C3.48171 0.166626 2.30532 0.653901 1.43797 1.52126C0.570609 2.38861 0.083334 3.565 0.083334 4.79163V20.2083C0.083334 21.4349 0.570609 22.6113 1.43797 23.4787C2.30532 24.346 3.48171 24.8333 4.70833 24.8333H26.2917C27.5183 24.8333 28.6947 24.346 29.562 23.4787C30.4294 22.6113 30.9167 21.4349 30.9167 20.2083V4.79163C30.9167 3.565 30.4294 2.38861 29.562 1.52126C28.6947 0.653901 27.5183 0.166626 26.2917 0.166626V0.166626ZM25.2587 3.24996L15.5 10.5729L5.74125 3.24996H25.2587ZM26.2917 21.75H4.70833C4.29946 21.75 3.90733 21.5875 3.61821 21.2984C3.32909 21.0093 3.16667 20.6172 3.16667 20.2083V5.17704L14.575 13.7333C14.8419 13.9334 15.1664 14.0416 15.5 14.0416C15.8336 14.0416 16.1581 13.9334 16.425 13.7333L27.8333 5.17704V20.2083C27.8333 20.6172 27.6709 21.0093 27.3818 21.2984C27.0927 21.5875 26.7005 21.75 26.2917 21.75Z" fill="white"/>
</svg>
