<?xml version="1.0" encoding="UTF-8"?>
<!--Generator: Apple Native CoreSVG 175.5-->
<!DOCTYPE svg
PUBLIC "-//W3C//DTD SVG 1.1//EN"
       "http://www.w3.org/Graphics/SVG/1.1/DTD/svg11.dtd">
<svg version="1.1" xmlns="http://www.w3.org/2000/svg" xmlns:xlink="http://www.w3.org/1999/xlink" width="8.13477" height="11.4502">
 <g>
  <rect height="11.4502" opacity="0" width="8.13477" x="0" y="0"/>
  <path d="M3.83789 10.5615C6.41602 10.5615 8.13477 8.81836 8.13477 6.19141C8.13477 1.82129 4.41406 0 1.83105 0C1.37207 0 1.0791 0.161133 1.0791 0.473633C1.0791 0.595703 1.13281 0.722656 1.23535 0.839844C1.81641 1.5332 2.39746 2.3584 2.40723 3.32031C2.40723 3.54004 2.38281 3.73535 2.22656 4.00879L2.4707 3.95996C2.25098 3.24219 1.66016 2.73438 1.14258 2.73438C0.942383 2.73438 0.805664 2.88086 0.805664 3.10059C0.805664 3.22754 0.839844 3.52539 0.839844 3.74023C0.839844 4.83398 0 5.47363 0 7.23633C0 9.2334 1.52832 10.5615 3.83789 10.5615ZM3.88672 9.87793C1.97266 9.87793 0.688477 8.81348 0.688477 7.23633C0.688477 5.63477 1.55273 5.09277 1.55273 3.82324C1.55273 3.63281 1.51367 3.46191 1.46973 3.31543L1.35742 3.51074C1.75781 3.75 2.03125 4.18457 2.1875 4.85352C2.20703 4.95605 2.26562 5.00488 2.33887 5.00488C2.73438 5.00488 3.01758 4.02344 3.01758 3.40332C3.01758 2.28027 2.53418 1.21582 1.74805 0.488281L1.61621 0.644531C5.12695 0.717773 7.41699 3.04688 7.41699 6.16699C7.41699 8.38379 6.00098 9.87793 3.88672 9.87793ZM3.9502 9.18945C5.1123 9.18945 5.67871 8.33496 5.67871 7.36816C5.67871 6.41602 5.12207 5.35156 4.05273 4.84863C4.00879 4.83398 3.97949 4.8584 3.98438 4.90234C4.06738 5.70312 3.94531 6.44531 3.68652 6.79688C3.56445 6.51367 3.41797 6.26953 3.19336 6.06934C3.15918 6.04004 3.12988 6.05469 3.12012 6.09863C3.04199 6.65039 2.43164 6.95801 2.43164 7.81738C2.43164 8.6377 3.03711 9.18945 3.9502 9.18945Z" fill="#ffffff" fill-opacity="0.85"/>
 </g>
</svg>
