<svg width="16" height="16" viewBox="0 0 16 16" fill="none" xmlns="http://www.w3.org/2000/svg">
<path d="M7.91667 0C6.87703 0 5.84758 0.204771 4.88709 0.60262C3.92659 1.00047 3.05387 1.58361 2.31874 2.31874C0.834075 3.8034 0 5.81704 0 7.91667C0 11.4158 2.27208 14.3846 5.415 15.4375C5.81083 15.5008 5.9375 15.2554 5.9375 15.0417V13.7037C3.74458 14.1787 3.2775 12.6429 3.2775 12.6429C2.91333 11.7246 2.39875 11.4792 2.39875 11.4792C1.67833 10.9883 2.45417 11.0042 2.45417 11.0042C3.24583 11.0596 3.66542 11.8196 3.66542 11.8196C4.35417 13.0229 5.51792 12.6667 5.96917 12.4767C6.04042 11.9621 6.24625 11.6137 6.46792 11.4158C4.71042 11.2179 2.86583 10.5371 2.86583 7.52083C2.86583 6.64208 3.16667 5.9375 3.68125 5.37542C3.60208 5.1775 3.325 4.35417 3.76042 3.28542C3.76042 3.28542 4.42542 3.07167 5.9375 4.09292C6.56292 3.91875 7.24375 3.83167 7.91667 3.83167C8.58958 3.83167 9.27042 3.91875 9.89583 4.09292C11.4079 3.07167 12.0729 3.28542 12.0729 3.28542C12.5083 4.35417 12.2312 5.1775 12.1521 5.37542C12.6667 5.9375 12.9675 6.64208 12.9675 7.52083C12.9675 10.545 11.115 11.21 9.34958 11.4079C9.63458 11.6533 9.89583 12.1362 9.89583 12.8725V15.0417C9.89583 15.2554 10.0225 15.5087 10.4262 15.4375C13.5692 14.3767 15.8333 11.4158 15.8333 7.91667C15.8333 6.87703 15.6286 5.84758 15.2307 4.88709C14.8329 3.92659 14.2497 3.05387 13.5146 2.31874C12.7795 1.58361 11.9067 1.00047 10.9462 0.60262C9.98575 0.204771 8.9563 0 7.91667 0V0Z" fill="#A3A3A3"/>
</svg>
