<svg width="55" height="56" viewBox="0 0 55 56" fill="none" xmlns="http://www.w3.org/2000/svg">
<path d="M53.9603 25.0497L29.9449 1.03769C29.6161 0.708712 29.2257 0.447744 28.796 0.269693C28.3663 0.091643 27.9057 0 27.4406 0C26.9754 0 26.5149 0.091643 26.0852 0.269693C25.6554 0.447744 25.265 0.708712 24.9362 1.03769L19.9516 6.02228L26.2769 12.3476C27.0229 12.0929 27.8255 12.053 28.593 12.2326C29.3605 12.4121 30.0622 12.8038 30.6177 13.363C31.1733 13.9222 31.5605 14.6263 31.7352 15.395C31.9098 16.1637 31.8648 16.966 31.6053 17.7103L37.7002 23.8087C38.602 23.4912 39.5849 23.4902 40.4873 23.8059C41.3896 24.1217 42.1576 24.7353 42.6647 25.5457C43.1717 26.3562 43.3877 27.3151 43.277 28.2647C43.1663 29.2143 42.7356 30.0978 42.0557 30.7699C41.3674 31.4624 40.4601 31.8945 39.4887 31.9923C38.5172 32.0901 37.542 31.8476 36.7295 31.3062C35.917 30.7648 35.3176 29.9581 35.0339 29.0239C34.7501 28.0897 34.7995 27.0859 35.1735 26.1841L29.4911 20.4982V35.4623C30.3548 35.8899 31.046 36.6005 31.4492 37.4758C31.8525 38.3512 31.9436 39.3383 31.7074 40.2726C31.4711 41.207 30.9218 42.0321 30.1509 42.6106C29.38 43.189 28.4342 43.4857 27.471 43.4513C26.5079 43.4169 25.5856 43.0535 24.8579 42.4215C24.1303 41.7896 23.6412 40.9273 23.4722 39.9785C23.3032 39.0297 23.4645 38.0516 23.9292 37.2073C24.3939 36.3629 25.1339 35.7034 26.026 35.3386V20.237C25.5113 20.0261 25.0435 19.7154 24.6495 19.3229C24.2554 18.9303 23.943 18.4637 23.7302 17.9498C23.5173 17.436 23.4083 16.8851 23.4094 16.3289C23.4105 15.7727 23.5217 15.2222 23.7365 14.7092L17.504 8.47332L1.03769 24.9397C0.708712 25.2685 0.447743 25.6589 0.269693 26.0886C0.091643 26.5183 0 26.9789 0 27.444C0 27.9091 0.091643 28.3697 0.269693 28.7994C0.447743 29.2291 0.708712 29.6195 1.03769 29.9483L25.0531 53.9637C25.3819 54.2927 25.7723 54.5537 26.202 54.7317C26.6317 54.9098 27.0923 55.0014 27.5574 55.0014C28.0226 55.0014 28.4831 54.9098 28.9128 54.7317C29.3425 54.5537 29.7329 54.2927 30.0618 53.9637L53.9637 30.0618C54.6273 29.3972 55 28.4965 55 27.5574C55 26.6183 54.6273 25.7176 53.9637 25.0531" fill="white"/>
</svg>
