<svg width="31" height="31" viewBox="0 0 31 31" fill="none" xmlns="http://www.w3.org/2000/svg">
<path d="M15.5 0.083374C13.4754 0.083374 11.4707 0.482138 9.60029 1.2569C7.72986 2.03166 6.03034 3.16724 4.59877 4.59881C1.70758 7.49 0.0833282 11.4113 0.0833282 15.5C0.0833282 22.3142 4.50791 28.0955 10.6283 30.1459C11.3992 30.2692 11.6458 29.7913 11.6458 29.375V26.7696C7.37541 27.6946 6.46583 24.7038 6.46583 24.7038C5.75666 22.9155 4.75458 22.4375 4.75458 22.4375C3.35166 21.4817 4.86249 21.5125 4.86249 21.5125C6.40416 21.6205 7.22124 23.1005 7.22124 23.1005C8.56249 25.4438 10.8287 24.75 11.7075 24.38C11.8462 23.378 12.2471 22.6996 12.6787 22.3142C9.25624 21.9288 5.66416 20.603 5.66416 14.7292C5.66416 13.018 6.24999 11.6459 7.25208 10.5513C7.09791 10.1659 6.55833 8.56254 7.40624 6.48129C7.40624 6.48129 8.70124 6.06504 11.6458 8.05379C12.8637 7.71462 14.1896 7.54504 15.5 7.54504C16.8104 7.54504 18.1362 7.71462 19.3542 8.05379C22.2987 6.06504 23.5937 6.48129 23.5937 6.48129C24.4417 8.56254 23.9021 10.1659 23.7479 10.5513C24.75 11.6459 25.3358 13.018 25.3358 14.7292C25.3358 20.6184 21.7283 21.9134 18.2904 22.2988C18.8454 22.7767 19.3542 23.7171 19.3542 25.1509V29.375C19.3542 29.7913 19.6008 30.2846 20.3871 30.1459C26.5075 28.08 30.9167 22.3142 30.9167 15.5C30.9167 13.4755 30.5179 11.4708 29.7431 9.60034C28.9684 7.7299 27.8328 6.03038 26.4012 4.59881C24.9697 3.16724 23.2701 2.03166 21.3997 1.2569C19.5293 0.482138 17.5245 0.083374 15.5 0.083374V0.083374Z" fill="white"/>
</svg>
