<svg width="150" height="100" viewBox="0 0 150 100" fill="none" xmlns="http://www.w3.org/2000/svg">
<path d="M8.33333 100C5.97222 100 3.99445 99.2 2.4 97.6C0.800001 96.0056 0 94.0278 0 91.6667C0 89.3056 0.800001 87.3278 2.4 85.7333C3.99445 84.1333 5.97222 83.3333 8.33333 83.3333H141.667C144.028 83.3333 146.006 84.1333 147.6 85.7333C149.2 87.3278 150 89.3056 150 91.6667C150 94.0278 149.2 96.0056 147.6 97.6C146.006 99.2 144.028 100 141.667 100H8.33333ZM8.33333 58.3333C5.97222 58.3333 3.99445 57.5333 2.4 55.9333C0.800001 54.3389 0 52.3611 0 50C0 47.6389 0.800001 45.6583 2.4 44.0583C3.99445 42.4639 5.97222 41.6667 8.33333 41.6667H141.667C144.028 41.6667 146.006 42.4639 147.6 44.0583C149.2 45.6583 150 47.6389 150 50C150 52.3611 149.2 54.3389 147.6 55.9333C146.006 57.5333 144.028 58.3333 141.667 58.3333H8.33333ZM8.33333 16.6667C5.97222 16.6667 3.99445 15.8694 2.4 14.275C0.800001 12.675 0 10.6944 0 8.33333C0 5.97222 0.800001 3.99167 2.4 2.39167C3.99445 0.797224 5.97222 0 8.33333 0H141.667C144.028 0 146.006 0.797224 147.6 2.39167C149.2 3.99167 150 5.97222 150 8.33333C150 10.6944 149.2 12.675 147.6 14.275C146.006 15.8694 144.028 16.6667 141.667 16.6667H8.33333Z" fill="white"/>
</svg>
