<svg width="56" height="59" viewBox="0 0 56 59" fill="none" xmlns="http://www.w3.org/2000/svg">
<path d="M16.0731 0V39.9176H56" stroke="white" stroke-width="2"/>
<path d="M23.1862 24.9928C23.1868 25.0753 23.1703 25.1572 23.1375 25.2336C23.1047 25.31 23.0563 25.3795 22.9952 25.438C22.934 25.4966 22.8613 25.5431 22.7811 25.5748C22.701 25.6065 22.6151 25.6228 22.5283 25.6228C22.4415 25.6228 22.3555 25.6065 22.2754 25.5748C22.1953 25.5431 22.1225 25.4966 22.0614 25.438C22.0002 25.3795 21.9519 25.31 21.9191 25.2336C21.8863 25.1572 21.8697 25.0753 21.8703 24.9928C21.8697 24.9103 21.8863 24.8285 21.9191 24.7521C21.9519 24.6756 22.0002 24.6062 22.0614 24.5476C22.1225 24.489 22.1953 24.4426 22.2754 24.4108C22.3555 24.3791 22.4415 24.3628 22.5283 24.3628C22.6151 24.3628 22.701 24.3791 22.7811 24.4108C22.8613 24.4426 22.934 24.489 22.9952 24.5476C23.0563 24.6062 23.1047 24.6756 23.1375 24.7521C23.1703 24.8285 23.1868 24.9103 23.1862 24.9928V24.9928Z" fill="white" stroke="white" stroke-width="2"/>
<path d="M24.429 18.9452C24.4296 19.0277 24.4131 19.1096 24.3803 19.186C24.3475 19.2624 24.2991 19.3319 24.238 19.3904C24.1768 19.449 24.1041 19.4955 24.0239 19.5272C23.9438 19.5589 23.8579 19.5752 23.7711 19.5752C23.6843 19.5752 23.5983 19.5589 23.5182 19.5272C23.4381 19.4955 23.3653 19.449 23.3042 19.3904C23.243 19.3319 23.1946 19.2624 23.1619 19.186C23.1291 19.1096 23.1125 19.0277 23.1131 18.9452C23.1125 18.8627 23.1291 18.7809 23.1619 18.7044C23.1946 18.628 23.243 18.5585 23.3042 18.5C23.3653 18.4414 23.4381 18.3949 23.5182 18.3632C23.5983 18.3315 23.6843 18.3152 23.7711 18.3152C23.8579 18.3152 23.9438 18.3315 24.0239 18.3632C24.1041 18.3949 24.1768 18.4414 24.238 18.5C24.2991 18.5585 24.3475 18.628 24.3803 18.7044C24.4131 18.7809 24.4296 18.8627 24.429 18.9452V18.9452Z" fill="white" stroke="white" stroke-width="2"/>
<path d="M28.6693 13.6623C28.6699 13.7448 28.6534 13.8267 28.6206 13.9031C28.5878 13.9795 28.5394 14.049 28.4783 14.1075C28.4171 14.1661 28.3444 14.2126 28.2642 14.2443C28.1841 14.276 28.0982 14.2923 28.0114 14.2923C27.9246 14.2923 27.8386 14.276 27.7585 14.2443C27.6784 14.2126 27.6056 14.1661 27.5445 14.1075C27.4833 14.049 27.4349 13.9795 27.4022 13.9031C27.3694 13.8267 27.3528 13.7448 27.3534 13.6623C27.3528 13.5798 27.3694 13.498 27.4022 13.4215C27.4349 13.3451 27.4833 13.2756 27.5445 13.2171C27.6056 13.1585 27.6784 13.112 27.7585 13.0803C27.8386 13.0486 27.9246 13.0323 28.0114 13.0323C28.0982 13.0323 28.1841 13.0486 28.2642 13.0803C28.3444 13.112 28.4171 13.1585 28.4783 13.2171C28.5394 13.2756 28.5878 13.3451 28.6206 13.4215C28.6534 13.498 28.6699 13.5798 28.6693 13.6623V13.6623Z" fill="white" stroke="white" stroke-width="2"/>
<path d="M34.6642 10.0477C34.6648 10.1303 34.6482 10.2121 34.6155 10.2885C34.5827 10.3649 34.5343 10.4344 34.4731 10.493C34.412 10.5515 34.3392 10.598 34.2591 10.6297C34.179 10.6614 34.093 10.6778 34.0062 10.6778C33.9194 10.6778 33.8335 10.6614 33.7534 10.6297C33.6732 10.598 33.6005 10.5515 33.5393 10.493C33.4782 10.4344 33.4298 10.3649 33.397 10.2885C33.3642 10.2121 33.3477 10.1303 33.3483 10.0477C33.3477 9.96522 33.3642 9.88339 33.397 9.80698C33.4298 9.73057 33.4782 9.66108 33.5393 9.60252C33.6005 9.54396 33.6732 9.49748 33.7534 9.46577C33.8335 9.43405 33.9194 9.41772 34.0062 9.41772C34.093 9.41772 34.179 9.43405 34.2591 9.46577C34.3392 9.49748 34.412 9.54396 34.4731 9.60252C34.5343 9.66108 34.5827 9.73057 34.6155 9.80698C34.6482 9.88339 34.6648 9.96522 34.6642 10.0477V10.0477Z" fill="white" stroke="white" stroke-width="2"/>
<path d="M37.0037 4.34773C37.0043 4.43026 36.9877 4.51208 36.9549 4.58849C36.9221 4.6649 36.8738 4.73439 36.8126 4.79295C36.7515 4.85151 36.6787 4.89799 36.5986 4.92971C36.5185 4.96142 36.4325 4.97775 36.3457 4.97775C36.2589 4.97775 36.173 4.96142 36.0929 4.92971C36.0127 4.89799 35.94 4.85151 35.8788 4.79295C35.8177 4.73439 35.7693 4.6649 35.7365 4.58849C35.7037 4.51208 35.6871 4.43026 35.6878 4.34773C35.6871 4.26521 35.7037 4.18338 35.7365 4.10697C35.7693 4.03056 35.8177 3.96107 35.8788 3.90251C35.94 3.84395 36.0127 3.79747 36.0929 3.76576C36.173 3.73404 36.2589 3.71771 36.3457 3.71771C36.4325 3.71771 36.5185 3.73404 36.5986 3.76576C36.6787 3.79747 36.7515 3.84395 36.8126 3.90251C36.8738 3.96107 36.9221 4.03056 36.9549 4.10697C36.9877 4.18338 37.0043 4.26521 37.0037 4.34773V4.34773Z" fill="white" stroke="white" stroke-width="2"/>
<path d="M41.5364 8.24043C41.537 8.32296 41.5204 8.40478 41.4876 8.48119C41.4549 8.5576 41.4065 8.62709 41.3453 8.68565C41.2842 8.74421 41.2114 8.79069 41.1313 8.82241C41.0512 8.85412 40.9652 8.87045 40.8784 8.87045C40.7916 8.87045 40.7057 8.85412 40.6256 8.82241C40.5454 8.79069 40.4727 8.74421 40.4115 8.68565C40.3504 8.62709 40.302 8.5576 40.2692 8.48119C40.2364 8.40478 40.2199 8.32296 40.2205 8.24043C40.2199 8.15791 40.2364 8.07608 40.2692 7.99967C40.302 7.92326 40.3504 7.85377 40.4115 7.79521C40.4727 7.73665 40.5454 7.69017 40.6256 7.65846C40.7057 7.62674 40.7916 7.61041 40.8784 7.61041C40.9652 7.61041 41.0512 7.62674 41.1313 7.65846C41.2114 7.69017 41.2842 7.73665 41.3453 7.79521C41.4065 7.85377 41.4549 7.92326 41.4876 7.99967C41.5204 8.07608 41.537 8.15791 41.5364 8.24043V8.24043Z" fill="white" stroke="white" stroke-width="2"/>
<path d="M45.4842 4.62581C45.4848 4.70833 45.4682 4.79016 45.4355 4.86657C45.4027 4.94298 45.3543 5.01247 45.2931 5.07103C45.232 5.12959 45.1592 5.17607 45.0791 5.20778C44.999 5.2395 44.913 5.25583 44.8262 5.25583C44.7394 5.25583 44.6535 5.2395 44.5734 5.20778C44.4932 5.17607 44.4205 5.12959 44.3594 5.07103C44.2982 5.01247 44.2498 4.94298 44.217 4.86657C44.1842 4.79016 44.1677 4.70833 44.1683 4.62581C44.1677 4.54328 44.1842 4.46146 44.217 4.38505C44.2498 4.30863 44.2982 4.23915 44.3594 4.18059C44.4205 4.12202 44.4932 4.07555 44.5734 4.04383C44.6535 4.01212 44.7394 3.99579 44.8262 3.99579C44.913 3.99579 44.999 4.01212 45.0791 4.04383C45.1592 4.07555 45.232 4.12202 45.2931 4.18059C45.3543 4.23915 45.4027 4.30863 45.4355 4.38505C45.4682 4.46146 45.4848 4.54328 45.4842 4.62581V4.62581Z" fill="white" stroke="white" stroke-width="2"/>
<path d="M52.9124 16.7892C52.913 16.8717 52.8965 16.9535 52.8637 17.03C52.8309 17.1064 52.7825 17.1759 52.7214 17.2344C52.6602 17.293 52.5875 17.3395 52.5073 17.3712C52.4272 17.4029 52.3413 17.4192 52.2545 17.4192C52.1677 17.4192 52.0817 17.4029 52.0016 17.3712C51.9215 17.3395 51.8487 17.293 51.7876 17.2344C51.7264 17.1759 51.678 17.1064 51.6453 17.03C51.6125 16.9535 51.5959 16.8717 51.5965 16.7892C51.5959 16.7067 51.6125 16.6248 51.6453 16.5484C51.678 16.472 51.7264 16.4025 51.7876 16.344C51.8487 16.2854 51.9215 16.2389 52.0016 16.2072C52.0817 16.1755 52.1677 16.1592 52.2545 16.1592C52.3413 16.1592 52.4272 16.1755 52.5073 16.2072C52.5875 16.2389 52.6602 16.2854 52.7214 16.344C52.7825 16.4025 52.8309 16.472 52.8637 16.5484C52.8965 16.6248 52.913 16.7067 52.9124 16.7892V16.7892Z" fill="white" stroke="white" stroke-width="2"/>
<path d="M44.071 15.1641C44.0716 15.2467 44.055 15.3285 44.0222 15.4049C43.9895 15.4813 43.9411 15.5508 43.8799 15.6094C43.8188 15.6679 43.746 15.7144 43.6659 15.7461C43.5858 15.7778 43.4998 15.7942 43.413 15.7942C43.3262 15.7942 43.2403 15.7778 43.1602 15.7461C43.08 15.7144 43.0073 15.6679 42.9461 15.6094C42.885 15.5508 42.8366 15.4813 42.8038 15.4049C42.771 15.3285 42.7545 15.2467 42.7551 15.1641C42.7545 15.0816 42.771 14.9998 42.8038 14.9234C42.8366 14.847 42.885 14.7775 42.9461 14.7189C43.0073 14.6604 43.08 14.6139 43.1602 14.5822C43.2403 14.5504 43.3262 14.5341 43.413 14.5341C43.4998 14.5341 43.5858 14.5504 43.6659 14.5822C43.746 14.6139 43.8188 14.6604 43.8799 14.7189C43.9411 14.7775 43.9895 14.847 44.0222 14.9234C44.055 14.9998 44.0716 15.0816 44.071 15.1641V15.1641Z" fill="white" stroke="white" stroke-width="2"/>
<path d="M43.8128 24.2124C43.8134 24.2949 43.7968 24.3768 43.764 24.4532C43.7312 24.5296 43.6829 24.5991 43.6217 24.6576C43.5605 24.7162 43.4878 24.7627 43.4077 24.7944C43.3275 24.8261 43.2416 24.8424 43.1548 24.8424C43.068 24.8424 42.9821 24.8261 42.9019 24.7944C42.8218 24.7627 42.7491 24.7162 42.6879 24.6576C42.6267 24.5991 42.5784 24.5296 42.5456 24.4532C42.5128 24.3768 42.4962 24.2949 42.4968 24.2124C42.4962 24.1299 42.5128 24.0481 42.5456 23.9717C42.5784 23.8952 42.6267 23.8258 42.6879 23.7672C42.7491 23.7086 42.8218 23.6622 42.9019 23.6304C42.9821 23.5987 43.068 23.5824 43.1548 23.5824C43.2416 23.5824 43.3275 23.5987 43.4077 23.6304C43.4878 23.6622 43.5605 23.7086 43.6217 23.7672C43.6829 23.8258 43.7312 23.8952 43.764 23.9717C43.7968 24.0481 43.8134 24.1299 43.8128 24.2124V24.2124Z" fill="white" stroke="white" stroke-width="2"/>
<path d="M36.4819 14.8162C36.4825 14.8987 36.4659 14.9805 36.4331 15.0569C36.4003 15.1333 36.352 15.2028 36.2908 15.2614C36.2297 15.32 36.1569 15.3664 36.0768 15.3982C35.9967 15.4299 35.9107 15.4462 35.8239 15.4462C35.7371 15.4462 35.6512 15.4299 35.5711 15.3982C35.4909 15.3664 35.4182 15.32 35.357 15.2614C35.2959 15.2028 35.2475 15.1333 35.2147 15.0569C35.1819 14.9805 35.1654 14.8987 35.166 14.8162C35.1654 14.7337 35.1819 14.6518 35.2147 14.5754C35.2475 14.499 35.2959 14.4295 35.357 14.371C35.4182 14.3124 35.4909 14.2659 35.5711 14.2342C35.6512 14.2025 35.7371 14.1862 35.8239 14.1862C35.9107 14.1862 35.9967 14.2025 36.0768 14.2342C36.1569 14.2659 36.2297 14.3124 36.2908 14.371C36.352 14.4295 36.4003 14.499 36.4331 14.5754C36.4659 14.6518 36.4825 14.7337 36.4819 14.8162V14.8162Z" fill="white" stroke="white" stroke-width="2"/>
<path d="M38.549 20.0919C38.5496 20.1745 38.533 20.2563 38.5002 20.3327C38.4674 20.4091 38.4191 20.4786 38.3579 20.5372C38.2967 20.5957 38.224 20.6422 38.1439 20.6739C38.0637 20.7056 37.9778 20.722 37.891 20.722C37.8042 20.722 37.7183 20.7056 37.6381 20.6739C37.558 20.6422 37.4853 20.5957 37.4241 20.5372C37.363 20.4786 37.3146 20.4091 37.2818 20.3327C37.249 20.2563 37.2324 20.1745 37.233 20.0919C37.2324 20.0094 37.249 19.9276 37.2818 19.8512C37.3146 19.7748 37.363 19.7053 37.4241 19.6467C37.4853 19.5882 37.558 19.5417 37.6381 19.51C37.7183 19.4782 37.8042 19.4619 37.891 19.4619C37.9778 19.4619 38.0637 19.4782 38.1439 19.51C38.224 19.5417 38.2967 19.5882 38.3579 19.6467C38.4191 19.7053 38.4674 19.7748 38.5002 19.8512C38.533 19.9276 38.5496 20.0094 38.549 20.0919V20.0919Z" fill="white" stroke="white" stroke-width="2"/>
<path d="M29.6928 18.8062C29.6934 18.8887 29.6769 18.9705 29.6441 19.0469C29.6113 19.1233 29.5629 19.1928 29.5018 19.2514C29.4406 19.3099 29.3679 19.3564 29.2877 19.3881C29.2076 19.4199 29.1217 19.4362 29.0349 19.4362C28.9481 19.4362 28.8621 19.4199 28.782 19.3881C28.7019 19.3564 28.6291 19.3099 28.568 19.2514C28.5068 19.1928 28.4584 19.1233 28.4257 19.0469C28.3929 18.9705 28.3763 18.8887 28.3769 18.8062C28.3763 18.7236 28.3929 18.6418 28.4257 18.5654C28.4584 18.489 28.5068 18.4195 28.568 18.3609C28.6291 18.3024 28.7019 18.2559 28.782 18.2242C28.8621 18.1925 28.9481 18.1761 29.0349 18.1761C29.1217 18.1761 29.2076 18.1925 29.2877 18.2242C29.3679 18.2559 29.4406 18.3024 29.5018 18.3609C29.5629 18.4195 29.6113 18.489 29.6441 18.5654C29.6769 18.6418 29.6934 18.7236 29.6928 18.8062V18.8062Z" fill="white" stroke="white" stroke-width="2"/>
<path d="M33.3159 22.63C33.3165 22.7125 33.3 22.7944 33.2672 22.8708C33.2344 22.9472 33.186 23.0167 33.1249 23.0752C33.0637 23.1338 32.991 23.1803 32.9108 23.212C32.8307 23.2437 32.7448 23.26 32.658 23.26C32.5712 23.26 32.4852 23.2437 32.4051 23.212C32.325 23.1803 32.2522 23.1338 32.1911 23.0752C32.1299 23.0167 32.0816 22.9472 32.0488 22.8708C32.016 22.7944 31.9994 22.7125 32 22.63C31.9994 22.5475 32.016 22.4657 32.0488 22.3893C32.0816 22.3128 32.1299 22.2434 32.1911 22.1848C32.2522 22.1262 32.325 22.0798 32.4051 22.048C32.4852 22.0163 32.5712 22 32.658 22C32.7448 22 32.8307 22.0163 32.9108 22.048C32.991 22.0798 33.0637 22.1262 33.1249 22.1848C33.186 22.2434 33.2344 22.3128 33.2672 22.3893C33.3 22.4657 33.3165 22.5475 33.3159 22.63Z" fill="white" stroke="white" stroke-width="2"/>
<path d="M22.5282 31.1793C22.5288 31.2619 22.5123 31.3437 22.4795 31.4201C22.4467 31.4965 22.3983 31.566 22.3371 31.6246C22.276 31.6831 22.2033 31.7296 22.1231 31.7613C22.043 31.793 21.957 31.8094 21.8703 31.8094C21.7835 31.8094 21.6975 31.793 21.6174 31.7613C21.5373 31.7296 21.4645 31.6831 21.4034 31.6246C21.3422 31.566 21.2938 31.4965 21.261 31.4201C21.2282 31.3437 21.2117 31.2619 21.2123 31.1793C21.2117 31.0968 21.2282 31.015 21.261 30.9386C21.2938 30.8622 21.3422 30.7927 21.4034 30.7341C21.4645 30.6756 21.5373 30.6291 21.6174 30.5974C21.6975 30.5656 21.7835 30.5493 21.8703 30.5493C21.957 30.5493 22.043 30.5656 22.1231 30.5974C22.2033 30.6291 22.276 30.6756 22.3371 30.7341C22.3983 30.7927 22.4467 30.8622 22.4795 30.9386C22.5123 31.015 22.5288 31.0968 22.5282 31.1793V31.1793Z" fill="white" stroke="white" stroke-width="2"/>
<path d="M26.9147 27.8428C26.9154 27.9253 26.8988 28.0071 26.866 28.0835C26.8332 28.16 26.7848 28.2294 26.7237 28.288C26.6625 28.3466 26.5898 28.393 26.5097 28.4248C26.4295 28.4565 26.3436 28.4728 26.2568 28.4728C26.17 28.4728 26.0841 28.4565 26.0039 28.4248C25.9238 28.393 25.8511 28.3466 25.7899 28.288C25.7287 28.2294 25.6804 28.16 25.6476 28.0835C25.6148 28.0071 25.5982 27.9253 25.5988 27.8428C25.5982 27.7603 25.6148 27.6784 25.6476 27.602C25.6804 27.5256 25.7287 27.4561 25.7899 27.3976C25.8511 27.339 25.9238 27.2925 26.0039 27.2608C26.0841 27.2291 26.17 27.2128 26.2568 27.2128C26.3436 27.2128 26.4295 27.2291 26.5097 27.2608C26.5898 27.2925 26.6625 27.339 26.7237 27.3976C26.7848 27.4561 26.8332 27.5256 26.866 27.602C26.8988 27.6784 26.9154 27.7603 26.9147 27.8428V27.8428Z" fill="white" stroke="white" stroke-width="2"/>
<path d="M18.0034 40.2131C18.0034 40.2131 18.9084 44.3472 25.2432 50.0319C31.5783 55.7162 30.4467 61.1424 35.1982 54.6828C39.9493 48.2233 38.2429 43.7135 55.4373 39.8376" stroke="white" stroke-width="2"/>
<path d="M16.1192 35.9839C16.1192 35.9839 13.8073 31.0835 7.27788 27.5762C-0.480062 23.4093 -1.26906 19.5049 6.15064 15.4662C13.5707 11.4271 5.38067 10.8522 16.1553 4.17285" stroke="white" stroke-width="2"/>
</svg>
