<?xml version="1.0" encoding="UTF-8"?>
<!--Generator: Apple Native CoreSVG 175.5-->
<!DOCTYPE svg
PUBLIC "-//W3C//DTD SVG 1.1//EN"
       "http://www.w3.org/Graphics/SVG/1.1/DTD/svg11.dtd">
<svg version="1.1" xmlns="http://www.w3.org/2000/svg" xmlns:xlink="http://www.w3.org/1999/xlink" width="10.835" height="9.72168">
 <g>
  <rect height="9.72168" opacity="0" width="10.835" x="0" y="0"/>
  <path d="M0 6.21094C0.820312 7.54883 2.96387 9.60938 5.84961 9.60938C7.69043 9.60938 8.19336 8.75488 9.2627 8.75488C10.1514 8.75488 10.5029 9.35059 10.6396 9.58496C10.6787 9.6582 10.7422 9.70703 10.7861 9.56543C10.8105 9.46289 10.835 9.32617 10.835 9.16016C10.835 8.69141 10.6934 7.79785 9.91211 6.81641C10.083 6.33301 10.1025 5.80078 10.1025 5.48828C10.1025 4.06738 9.30176 1.59668 6.65039 0C7.20215 0.78125 7.94434 1.96289 7.94434 3.6084C7.94434 4.2041 7.77832 4.8584 7.64648 5.18555C6.20605 4.35059 3.45215 2.05566 2.34863 0.883789C3.23242 2.24121 4.28223 3.47168 5.44434 4.76074C3.88184 3.77441 2.42676 2.66602 1.06934 1.4502C2.36816 3.33984 4.01367 5.2002 6.18164 6.95312C5.56152 7.29492 4.92188 7.56836 3.83301 7.56836C2.50488 7.56836 0.883789 6.92383 0 6.21094Z" fill="#ffffff" fill-opacity="1"/>
 </g>
</svg>
